<svg version="1.2" xmlns="http://www.w3.org/2000/svg" viewBox="0 0 800 800" width="800" height="800">
	<title>New Project</title>
	<style>
		.s0 { fill: #0091ff } 
		.s1 { fill: #0aff00;stroke: #000000;stroke-miterlimit:10;stroke-width: 29 } 
	</style>
	<g id="Layer 1">
		<path id="Shape 2" fill-rule="evenodd" class="s0" d="m800 0v800h-800v-800z"/>
		<path id="Shape 1" fill-rule="evenodd" class="s1" d="m51.3 569.9c29.5 130.7 199.5 196.6 386.9 194.1 187.4-2.5 304.9-117.9 311.3-220 6.2-99.2 27.2-235.5-75.6-356.9-64.4-76-206.4-171.3-367.9-145.6-161.5 25.7-257.7 113.2-223 120.9 34.6 7.8 61 0.9 144.4-27.3 61.3-20.8 165.1-24.9 162.1 23.3-2.9 48.1-59.4 33.6-108.1 41.3-48.7 7.8-73.9 17.1-73.7 40 0.3 22.8 107.5 22.9 171.6 26.7 64.1 3.7 133.7-6.2 172.7 80 39 86.3 67.7 188-22.9 279.4-90.7 91.4-53.3-45.9-84.7-125.2-31.4-79.3-62.4-151.2-104.5-166.2-42-15-90.4 41.9-66.7 107.5 23.8 65.5 21.2 146.9-20 153.4-41.2 6.5-86.1-49.6-85.7-151.4 0.5-101.8 7.4-201.5-32.1-183-43.4 20.5-113.7 178.3-84.1 309z"/>
	</g>
</svg>