<svg width="48" height="46" viewBox="0 0 48 46" fill="none" xmlns="http://www.w3.org/2000/svg">
<path d="M13.8855 3.19284C7.53502 6.49155 2.67127 12.5348 0.8065 19.4437C-0.376447 23.8264 -0.354534 28.6399 1.52038 32.7742C4.60947 39.5858 12.1199 43.3987 19.4908 44.6676C24.8062 45.5826 30.4475 45.4105 35.3646 43.1942C42.9318 39.7834 47.8772 31.5714 47.9979 23.272C48.1067 15.7938 44.0117 5.83978 37.1274 2.04202C30.707 -1.4999 20.013 0.00999933 13.8855 3.19284Z" fill="#45539F"/>
<path d="M31.3432 41.7445C26.4011 43.7893 20.5536 44.3337 14.429 43.3162C14.3049 43.2956 14.1857 43.2721 14.0637 43.2504C15.8353 43.8827 17.6671 44.3536 19.4906 44.6675C20.6324 44.8641 21.7895 45.0067 22.9508 45.0935C26.1192 44.8485 29.1276 44.1605 31.8728 43.0249C37.7769 40.5818 42.3789 36.079 44.4994 30.6704C46.8194 24.7526 45.9119 17.9483 42.1873 13.3354C40.3479 11.0569 37.7312 9.1438 34.4104 7.64874C30.8922 6.06428 27.4992 5.34254 24.3121 5.49877C19.5169 5.73632 14.7065 8.07592 11.1141 11.9179C7.85132 15.4082 6.00988 19.6384 5.92882 23.8294C5.83841 28.5399 8.16229 33.0378 11.8491 35.2882C15.3275 37.4109 19.6004 37.4546 22.933 37.2557C26.0479 37.0697 30.084 36.6101 33.6754 34.6891C37.3656 32.7157 39.8796 29.4301 40.3999 25.9001C40.7792 23.3261 40.116 20.7327 39.3431 18.3135C38.7899 16.5834 38.0829 14.613 36.6822 13.1302C35.5782 11.9611 34.0041 11.067 32.004 10.4718C27.5061 9.13369 22.5748 9.67757 18.4763 11.9641C15.2877 13.7434 12.9393 16.479 12.0328 19.4701C10.9652 22.994 11.9635 26.819 14.5173 28.9879C15.7731 30.0546 17.4593 30.7952 19.6721 31.2524C22.5379 31.8446 25.1763 31.7933 27.5134 31.1006C30.2618 30.286 32.5512 28.5295 33.7948 26.2811C35.1979 23.7435 35.1837 20.6303 33.7594 18.3494C31.578 14.8565 26.7735 14.1605 23.3618 15.2773C20.8341 16.1054 19.0703 17.7849 18.6443 19.77C18.2596 21.5658 18.9946 23.6177 20.5629 25.125C21.8368 26.3503 23.4542 27.0502 25.0087 27.0502C25.0239 27.0502 25.0397 27.0502 25.0554 27.05C26.888 27.033 28.5977 25.9917 29.3106 24.4586C30.1055 22.7471 29.4723 20.5409 27.9281 19.6413C27.0948 19.1564 26.0228 19.1021 25.0608 19.4947C24.1617 19.8617 23.5122 20.5596 23.2783 21.4093C23.1771 21.7783 23.3938 22.1595 23.7628 22.261C24.1312 22.3624 24.5135 22.1458 24.6147 21.7768C24.7331 21.3447 25.0868 20.9806 25.584 20.7775C26.1436 20.549 26.774 20.5726 27.2304 20.8387C28.1668 21.3843 28.552 22.8029 28.0538 23.8747C27.5699 24.9168 26.3313 25.6528 25.0426 25.6645C23.8217 25.6672 22.5507 25.115 21.5234 24.1265C20.5629 23.2033 19.6584 21.6506 19.9993 20.0607C20.3207 18.5629 21.7391 17.2669 23.7932 16.594C26.7072 15.6394 30.7771 16.1892 32.5842 19.0835C33.7284 20.9158 33.7279 23.5387 32.5822 25.6105C31.5131 27.5433 29.5223 29.0602 27.1194 29.7721C25.0038 30.3995 22.5924 30.4408 19.9522 29.8954C17.9727 29.4867 16.4884 28.8443 15.4144 27.9322C13.3082 26.1431 12.4627 22.8287 13.3583 19.872C14.1621 17.2214 16.2733 14.7801 19.1513 13.1743C22.8705 11.099 27.5281 10.5858 31.6089 11.7998C33.3722 12.3245 34.7405 13.0922 35.675 14.0815C36.8757 15.353 37.5169 17.1504 38.0234 18.7354C38.7457 20.9956 39.3672 23.4033 39.0291 25.6982C38.5727 28.7956 36.327 31.7 33.0219 33.4672C30.4047 34.8672 27.2677 35.6091 22.8504 35.8727C19.7178 36.0599 15.72 36.0274 12.5712 34.1057C9.29617 32.1068 7.23269 28.0837 7.31423 23.856C7.38843 20.0079 9.09718 16.1042 12.1261 12.8642C15.4749 9.28285 19.9413 7.10267 24.3808 6.88283C27.3497 6.73594 30.5256 7.41909 33.8414 8.91192C36.9622 10.3171 39.4074 12.0981 41.1093 14.206C44.5264 18.4381 45.3508 24.7023 43.2092 30.1649C41.2258 35.2244 36.9009 39.4449 31.3432 41.7445Z" fill="#FF8A48"/>
</svg>
