<?xml version="1.0" encoding="UTF-8" standalone="no"?>
<svg
   width="660pt"
   height="660pt"
   viewBox="0 0 660 660"
   version="1.1"
   id="svg23"
   xmlns="http://www.w3.org/2000/svg"
   xmlns:svg="http://www.w3.org/2000/svg">
  <defs
     id="defs23" />
  <rect
     x="-66"
     y="-66"
     width="792"
     height="792"
     fill="rgb(33.918762%, 41.2323%, 50.239563%)"
     fill-opacity="1"
     id="rect1" />
  <path
     fill-rule="nonzero"
     fill="rgb(20.858765%, 25.19989%, 31.634521%)"
     fill-opacity="1"
     d="M 0 660 L 660 660 L 660 524.367188 L 0 524.367188 Z M 0 660 "
     id="path1" />
  <path
     fill-rule="evenodd"
     fill="rgb(17.643738%, 16.757202%, 17.834473%)"
     fill-opacity="1"
     d="M 61.761719 452.4375 L 590.972656 452.4375 L 590.972656 130.308594 L 61.761719 130.308594 Z M 61.761719 452.4375 "
     id="path2" />
  <path
     fill-rule="evenodd"
     fill="rgb(17.643738%, 16.757202%, 17.834473%)"
     fill-opacity="1"
     d="M 122.308594 524.367188 L 530.421875 524.367188 L 530.421875 502.566406 L 122.308594 502.566406 Z M 122.308594 524.367188 "
     id="path3" />
  <path
     fill-rule="evenodd"
     fill="rgb(17.643738%, 16.757202%, 17.834473%)"
     fill-opacity="1"
     d="M 462.605469 437.777344 L 485.613281 437.777344 L 485.613281 513.46875 L 462.605469 513.46875 Z M 167.121094 437.777344 L 190.128906 437.777344 L 190.128906 513.46875 L 167.121094 513.46875 Z M 167.121094 437.777344 "
     id="path4" />
  <path
     fill-rule="evenodd"
     fill="rgb(26.615906%, 39.953613%, 58.547974%)"
     fill-opacity="1"
     d="M 74 440.199219 L 578.734375 440.199219 L 578.734375 142.546875 L 74 142.546875 Z M 74 440.199219 "
     id="path5" />
  <path
     fill-rule="evenodd"
     fill="rgb(36.520386%, 50.793457%, 68.984985%)"
     fill-opacity="1"
     d="M 541.695312 142.546875 L 341.796875 440.199219 L 395.386719 440.199219 L 578.734375 167.191406 L 578.734375 142.546875 Z M 273.457031 142.546875 L 490.808594 142.546875 L 290.910156 440.199219 L 74 440.199219 L 74 439.542969 Z M 273.457031 142.546875 "
     id="path6" />
  <path
     fill-rule="evenodd"
     fill="rgb(94.996643%, 56.086731%, 38.415527%)"
     fill-opacity="1"
     d="M 329.382812 353.480469 L 384.738281 329.554688 L 385.230469 336.535156 C 385.925781 346.488281 382.402344 356.277344 375.523438 363.503906 C 368.644531 370.730469 359.039062 374.730469 349.0625 374.523438 Z M 329.382812 353.480469 "
     id="path7" />
  <path
     fill-rule="evenodd"
     fill="rgb(94.996643%, 56.086731%, 38.415527%)"
     fill-opacity="1"
     d="M 377.453125 660 L 314.148438 561.800781 L 381.375 467.492188 L 390.5625 454.964844 C 395.015625 448.902344 395.894531 440.929688 392.875 434.039062 C 389.855469 427.148438 383.394531 422.394531 375.921875 421.558594 L 385.039062 406.558594 C 388.808594 400.347656 388.300781 392.441406 383.761719 386.769531 C 379.222656 381.09375 371.617188 378.863281 364.730469 381.1875 L 356.28125 345.171875 C 370.3125 338.695312 376.714844 322.296875 370.785156 308.027344 L 330.945312 328.828125 L 251.617188 601.617188 L 280.585938 660 Z M 377.453125 660 "
     id="path8" />
  <path
     fill-rule="evenodd"
     fill="rgb(17.643738%, 16.757202%, 17.834473%)"
     fill-opacity="1"
     d="M 258.421875 261.039062 L 335.128906 249.339844 C 342.105469 248.277344 348.683594 253.113281 349.75 260.089844 L 395.527344 560.28125 C 396.585938 567.257812 391.75 573.835938 384.777344 574.898438 L 308.066406 586.597656 C 301.089844 587.660156 294.511719 582.824219 293.449219 575.847656 L 247.671875 275.65625 C 246.609375 268.679688 251.445312 262.101562 258.421875 261.039062 "
     id="path9" />
  <path
     fill-rule="evenodd"
     fill="rgb(97.958374%, 70.648193%, 4.0802%)"
     fill-opacity="1"
     d="M 272.777344 255.371094 L 319.738281 248.210938 C 321.605469 247.925781 323.367188 249.222656 323.652344 251.089844 L 324.636719 257.546875 C 325.464844 262.964844 321.707031 268.074219 316.289062 268.902344 L 282.234375 274.09375 C 276.816406 274.921875 271.707031 271.164062 270.882812 265.742188 L 269.898438 259.289062 C 269.613281 257.421875 270.90625 255.65625 272.777344 255.371094 "
     id="path10" />
  <path
     fill-rule="evenodd"
     fill="rgb(73.667908%, 72.019958%, 75.883484%)"
     fill-opacity="1"
     d="M 279.277344 309.480469 C 284.296875 308.714844 288.984375 312.164062 289.75 317.183594 C 290.515625 322.199219 287.070312 326.890625 282.050781 327.652344 C 277.027344 328.421875 272.34375 324.972656 271.574219 319.953125 C 270.808594 314.933594 274.257812 310.242188 279.277344 309.480469 M 329.660156 301.796875 C 334.679688 301.03125 339.367188 304.480469 340.132812 309.5 C 340.898438 314.515625 337.449219 319.207031 332.429688 319.972656 C 327.414062 320.738281 322.722656 317.289062 321.957031 312.269531 C 321.191406 307.25 324.640625 302.5625 329.660156 301.796875 M 283.351562 336.195312 C 288.371094 335.433594 293.0625 338.878906 293.824219 343.898438 C 294.589844 348.917969 291.140625 353.605469 286.121094 354.371094 C 281.105469 355.140625 276.414062 351.6875 275.648438 346.671875 C 274.882812 341.652344 278.332031 336.964844 283.351562 336.195312 M 333.734375 328.511719 C 338.753906 327.75 343.441406 331.195312 344.207031 336.214844 C 344.976562 341.234375 341.527344 345.925781 336.503906 346.691406 C 331.484375 347.453125 326.796875 344.007812 326.03125 338.988281 C 325.269531 333.96875 328.714844 329.28125 333.734375 328.511719 M 287.425781 362.914062 C 292.445312 362.148438 297.132812 365.597656 297.898438 370.617188 C 298.664062 375.636719 295.21875 380.324219 290.195312 381.089844 C 285.179688 381.855469 280.488281 378.40625 279.726562 373.386719 C 278.957031 368.371094 282.40625 363.679688 287.425781 362.914062 M 337.808594 355.230469 C 342.824219 354.46875 347.519531 357.914062 348.28125 362.933594 C 349.046875 367.953125 345.597656 372.640625 340.578125 373.40625 C 335.5625 374.171875 330.875 370.722656 330.105469 365.703125 C 329.339844 360.6875 332.789062 355.996094 337.808594 355.230469 M 312.617188 359.074219 C 317.636719 358.308594 322.324219 361.753906 323.089844 366.773438 C 323.855469 371.792969 320.40625 376.480469 315.390625 377.246094 C 310.371094 378.015625 305.679688 374.566406 304.914062 369.546875 C 304.152344 364.527344 307.597656 359.839844 312.617188 359.074219 M 308.542969 332.355469 C 313.5625 331.589844 318.25 335.035156 319.015625 340.058594 C 319.78125 345.074219 316.332031 349.765625 311.316406 350.53125 C 306.292969 351.296875 301.605469 347.847656 300.839844 342.828125 C 300.074219 337.8125 303.523438 333.121094 308.542969 332.355469 M 275.203125 282.761719 C 280.222656 281.996094 284.910156 285.445312 285.679688 290.464844 C 286.441406 295.480469 282.992188 300.171875 277.976562 300.9375 C 272.957031 301.703125 268.265625 298.253906 267.5 293.234375 C 266.734375 288.214844 270.183594 283.527344 275.203125 282.761719 M 325.585938 275.078125 C 330.605469 274.3125 335.292969 277.761719 336.058594 282.78125 C 336.824219 287.800781 333.375 292.488281 328.355469 293.253906 C 323.339844 294.019531 318.648438 290.570312 317.882812 285.550781 C 317.117188 280.53125 320.566406 275.84375 325.585938 275.078125 M 300.394531 278.921875 C 305.410156 278.15625 310.101562 281.605469 310.867188 286.621094 C 311.632812 291.640625 308.183594 296.328125 303.164062 297.097656 C 298.148438 297.863281 293.457031 294.414062 292.691406 289.394531 C 291.925781 284.375 295.375 279.6875 300.394531 278.921875 M 304.46875 305.640625 C 309.488281 304.871094 314.175781 308.320312 314.941406 313.339844 C 315.707031 318.359375 312.257812 323.046875 307.242188 323.8125 C 302.222656 324.578125 297.53125 321.132812 296.765625 316.109375 C 296 311.089844 299.449219 306.402344 304.46875 305.640625 "
     id="path11" />
  <path
     fill-rule="evenodd"
     fill="rgb(10.177612%, 9.317017%, 9.33075%)"
     fill-opacity="1"
     d="M 304.773438 384.660156 L 327.730469 381.160156 C 340.273438 379.25 352.09375 387.945312 354.007812 400.484375 C 355.921875 413.023438 347.226562 424.851562 334.683594 426.761719 L 311.726562 430.265625 C 299.1875 432.175781 287.363281 423.480469 285.449219 410.941406 L 285.449219 410.9375 C 283.535156 398.398438 292.234375 386.574219 304.773438 384.660156 "
     id="path12" />
  <path
     fill-rule="evenodd"
     fill="rgb(17.643738%, 16.757202%, 17.834473%)"
     fill-opacity="1"
     d="M 306.570312 396.445312 L 329.527344 392.941406 C 335.585938 392.019531 341.304688 396.21875 342.226562 402.28125 C 343.152344 408.34375 338.949219 414.058594 332.886719 414.980469 L 309.929688 418.484375 C 303.871094 419.410156 298.152344 415.207031 297.230469 409.140625 C 296.304688 403.082031 300.507812 397.367188 306.570312 396.445312 "
     id="path13" />
  <path
     fill-rule="evenodd"
     fill="rgb(17.643738%, 16.757202%, 17.834473%)"
     fill-opacity="1"
     d="M 311.945312 378.46875 L 319.039062 377.386719 L 327.515625 432.953125 L 320.417969 434.035156 Z M 311.945312 378.46875 "
     id="path14" />
  <path
     fill-rule="evenodd"
     fill="rgb(17.643738%, 16.757202%, 17.834473%)"
     fill-opacity="1"
     d="M 282.894531 414.960938 L 281.8125 407.863281 L 356.5625 396.464844 L 357.644531 403.5625 Z M 282.894531 414.960938 "
     id="path15" />
  <path
     fill-rule="evenodd"
     fill="rgb(96.356201%, 51.597595%, 7.284546%)"
     fill-opacity="1"
     d="M 302.953125 464.734375 C 307.972656 463.96875 312.660156 467.417969 313.425781 472.4375 C 314.191406 477.457031 310.742188 482.144531 305.726562 482.910156 C 300.707031 483.675781 296.015625 480.226562 295.25 475.207031 C 294.484375 470.1875 297.933594 465.5 302.953125 464.734375 "
     id="path16" />
  <path
     fill-rule="evenodd"
     fill="rgb(60.575867%, 76.919556%, 12.92572%)"
     fill-opacity="1"
     d="M 353.335938 457.050781 C 358.355469 456.285156 363.042969 459.734375 363.808594 464.753906 C 364.574219 469.773438 361.125 474.460938 356.105469 475.226562 C 351.089844 475.992188 346.398438 472.542969 345.632812 467.527344 C 344.867188 462.507812 348.316406 457.816406 353.335938 457.050781 "
     id="path17" />
  <path
     fill-rule="evenodd"
     fill="rgb(38.909912%, 59.533691%, 84.242249%)"
     fill-opacity="1"
     d="M 298.878906 438.019531 C 303.898438 437.25 308.585938 440.703125 309.355469 445.71875 C 310.117188 450.738281 306.667969 455.425781 301.652344 456.191406 C 296.632812 456.957031 291.941406 453.511719 291.175781 448.492188 C 290.410156 443.472656 293.859375 438.785156 298.878906 438.019531 "
     id="path18" />
  <path
     fill-rule="evenodd"
     fill="rgb(38.404846%, 37.905884%, 41.040039%)"
     fill-opacity="1"
     d="M 349.261719 430.332031 C 354.28125 429.566406 358.96875 433.019531 359.734375 438.035156 C 360.496094 443.058594 357.050781 447.742188 352.03125 448.511719 C 347.011719 449.273438 342.324219 445.828125 341.5625 440.808594 C 340.792969 435.789062 344.242188 431.101562 349.261719 430.332031 "
     id="path19" />
  <path
     fill-rule="evenodd"
     fill="rgb(94.563293%, 28.590393%, 37.492371%)"
     fill-opacity="1"
     d="M 324.070312 434.175781 C 329.085938 433.410156 333.78125 436.859375 334.542969 441.878906 C 335.308594 446.898438 331.859375 451.585938 326.839844 452.351562 C 321.824219 453.117188 317.132812 449.667969 316.367188 444.648438 C 315.601562 439.628906 319.050781 434.941406 324.070312 434.175781 "
     id="path20" />
  <path
     fill-rule="evenodd"
     fill="rgb(84.103394%, 27.102661%, 12.548828%)"
     fill-opacity="1"
     d="M 328.144531 460.894531 C 333.164062 460.128906 337.851562 463.578125 338.617188 468.59375 C 339.382812 473.613281 335.9375 478.304688 330.917969 479.070312 C 325.898438 479.832031 321.207031 476.386719 320.441406 471.367188 C 319.675781 466.347656 323.125 461.660156 328.144531 460.894531 "
     id="path21" />
  <path
     fill-rule="evenodd"
     fill="rgb(96.012878%, 65.168762%, 51.245117%)"
     fill-opacity="1"
     d="M 261.269531 364.824219 L 281.625 498.308594 L 357.644531 403.558594 L 363.0625 409.90625 C 370.035156 418.074219 371.949219 429.417969 368.042969 439.425781 C 364.136719 449.429688 355.042969 456.472656 344.378906 457.753906 L 324.429688 501.050781 C 341.007812 545.238281 347.535156 588.050781 279.574219 622.515625 L 302.449219 660 L 258.617188 660 L 178.320312 475.125 Z M 261.269531 364.824219 "
     id="path22" />
  <path
     fill-rule="evenodd"
     fill="rgb(90.083313%, 46.75293%, 28.393555%)"
     fill-opacity="1"
     d="M 254.949219 465.914062 L 268.085938 409.519531 L 281.625 498.308594 Z M 254.949219 465.914062 "
     id="path23" />
</svg>
